# xmcd
#
# Track frame offsets:
# 170
# 16957
# 33130
# 49407
# 66277
# 81017
# 97535
# 117045
# 131915
# 153337
# 171902
#
# Disc length: 2545 seconds
#
#
# Revision: 7
# Processed by: cddbd v1.5.2PL0 Copyright (c) Steve Scherf et al.
# Submitted via: FreeRIP 2.90 
#
DISCID=8209ef0b
DTITLE=Chitaozinho and Xororo - Tudo Por Amor
DYEAR=1993
DGENRE=Sertanejo
TTITLE0=Deixa (Deja)
TTITLE1=40 e 20 (40 y 20)
TTITLE2=Pode Ser Pra Valer
TTITLE3=Guadalupe
TTITLE4=Va Pro Inferno Com Seu Amor
TTITLE5=Pensando Em Minha Amada
TTITLE6=Confidencias
TTITLE7=Palavras (Words)
TTITLE8=Tudo Por Amor
TTITLE9=Razao Pra Chorar
TTITLE10=Coracao Deserto
EXTD=
EXTT0=
EXTT1=
EXTT2=
EXTT3=
EXTT4=
EXTT5=
EXTT6=
EXTT7=
EXTT8=
EXTT9=
EXTT10=
PLAYORDER=
